<svg xmlns="http://www.w3.org/2000/svg" viewBox="0 0 166.35 140.61"><defs><style>.cls-1{fill:#c1f4f1;}.cls-2{fill:#82dbd8;}.cls-3{fill:#00a0a8;}.cls-4{fill:none;stroke:#00a0a8;stroke-miterlimit:10;stroke-width:9px;}</style></defs><g id="Layer_2" data-name="Layer 2"><g id="Layer_1-2" data-name="Layer 1"><path class="cls-1" d="M56.23,20.28,68.78,8,99.57,5.44l14.14,39.14c3.85,10.84-1.32,18.23-13,19.2C81.19,65.4,71.82,72.23,69.93,76.45c-1.66,3.69,3.82,1.68,6,1.21,3-.64,5.8-5.79,23.88-5.79,24.35,0,37.73,16.9,43.34,32.72l3.59,10.15-26.25,11.7-3.93-15.79h0c-10.24-26.91-38.79-6-50.69-19.05-6.67-7.34-2.8-19.31,10.86-30.15,6-4.8,7.45-11.75,5.59-17.34L76,26.59"/><path class="cls-2" d="M50.48,26.47,63,14.18l30.79-2.54L108,50.77C111.81,61.61,106.64,69,95,70c-19.51,1.62-28.88,8.46-30.77,12.68-1.66,3.68,3.82,1.67,6,1.2,3-.64,5.8-5.78,23.88-5.78,24.35,0,37.73,16.9,43.34,32.71L141,120.93l-26.25,11.7-3.93-15.78h0c-10.24-26.91-38.79-6-50.69-19C53.49,90.45,57.36,78.48,71,67.64c6-4.8,7.45-11.75,5.6-17.34L70.25,32.79"/><path class="cls-3" d="M134.18,127.22,106.87,135,104,123.14h0C93.75,96.22,70.58,112.94,58.67,99.84,52,92.5,50.51,84.77,64.17,73.93c6-4.8,7.45-11.75,5.59-17.34L63.39,39.08,27.87,127H0L32.49,50.14,43.63,32.76l11.5-14.71L87,17.93l14.14,39.13c3.84,10.84-1.32,18.23-13,19.2-19.5,1.62-28.87,8.45-30.77,12.67-1.65,3.69,1,5.18,3.26,4.71,3.06-.64,8.59-9.28,26.66-9.28,24.36,0,37.74,16.9,43.35,32.71Z"/><ellipse class="cls-3" cx="126.82" cy="63.92" rx="10.24" ry="11.03"/><text/><ellipse class="cls-4" cx="97.17" cy="70.31" rx="64.68" ry="65.81"/></g></g></svg>